HIERARCHY
ROOT SpineBase
{
  OFFSET 0.000000 0.000000 0.000000
  CHANNELS 6 Xposition Yposition Zposition Zrotation Xrotation Yrotation
  JOINT SpineMid
  {
    OFFSET 0.000000 29.388216 0.000000
    CHANNELS 3 Zrotation Xrotation Yrotation
    JOINT SpineShoulder
    {
      OFFSET 0.167833 21.864328 -0.638326
      CHANNELS 3 Zrotation Xrotation Yrotation
      JOINT Neck
      {
        OFFSET 0.107263 7.247375 -0.521976
        CHANNELS 3 Zrotation Xrotation Yrotation
        JOINT Head
        {
          OFFSET 3.852418 13.255448 1.439507
          CHANNELS 3 Zrotation Xrotation Yrotation
          End Site
          {
            OFFSET 0 0 0
          }
        }
      }
      JOINT ShoulderLeft
      {
        OFFSET -7.748983 -3.694067 -13.704748
        CHANNELS 3 Zrotation Xrotation Yrotation
        JOINT ElbowLeft
        {
          OFFSET -0.912572 -25.201037 -4.960212
          CHANNELS 3 Zrotation Xrotation Yrotation
          JOINT WristLeft
          {
            OFFSET 7.446623 -22.577238 -1.190476
            CHANNELS 3 Zrotation Xrotation Yrotation
            JOINT HandLeft
            {
              OFFSET 0.105243 -4.428519 2.891682
              CHANNELS 3 Zrotation Xrotation Yrotation
              JOINT HandTipLeft
              {
                OFFSET 1.618439 -6.600945 1.482834
                CHANNELS 3 Zrotation Xrotation Yrotation
                End Site
                {
                  OFFSET 0 0 0
                }
              }
              JOINT ThumbLeft
              {
                OFFSET 5.275605 2.314091 3.428245
                CHANNELS 3 Zrotation Xrotation Yrotation
                End Site
                {
                  OFFSET 0 0 0
                }
              }
            }
          }
        }
      }
      JOINT ShoulderRight
      {
        OFFSET 9.747657 -3.293706 12.124629
        CHANNELS 3 Zrotation Xrotation Yrotation
        JOINT ElbowRight
        {
          OFFSET 4.182568 -30.067160 0.448418
          CHANNELS 3 Zrotation Xrotation Yrotation
          JOINT WristRight
          {
            OFFSET -1.297531 -22.223617 4.685683
            CHANNELS 3 Zrotation Xrotation Yrotation
            JOINT HandRight
            {
              OFFSET -0.602293 -2.365846 -3.632353
              CHANNELS 3 Zrotation Xrotation Yrotation
              JOINT HandTipRight
              {
                OFFSET -0.283518 -2.284166 -0.799567
                CHANNELS 3 Zrotation Xrotation Yrotation
                End Site
                {
                  OFFSET 0 0 0
                }
              }
              JOINT ThumbRight
              {
                OFFSET 0.547241 0.490904 -1.513513
                CHANNELS 3 Zrotation Xrotation Yrotation
                End Site
                {
                  OFFSET 0 0 0
                }
              }
            }
          }
        }
      }
    }
  }
  JOINT HipLeft
  {
    OFFSET -3.695340 2.114493 -8.645088
    CHANNELS 3 Zrotation Xrotation Yrotation
    JOINT KneeLeft
    {
      OFFSET -6.306395 -28.701622 0.163348
      CHANNELS 3 Zrotation Xrotation Yrotation
      JOINT AnkleLeft
      {
        OFFSET -7.192432 -33.748926 3.748541
        CHANNELS 3 Zrotation Xrotation Yrotation
        JOINT FootLeft
        {
          OFFSET 3.879536 -7.786581 -1.060385
          CHANNELS 3 Zrotation Xrotation Yrotation
          End Site
          {
            OFFSET 0 0 0
          }
        }
      }
    }
  }
  JOINT HipRight
  {
    OFFSET 4.649015 -0.227600 1.769186
    CHANNELS 3 Zrotation Xrotation Yrotation
    JOINT KneeRight
    {
      OFFSET -2.310545 -29.207505 7.781112
      CHANNELS 3 Zrotation Xrotation Yrotation
      JOINT AnkleRight
      {
        OFFSET -10.530726 -29.259388 -0.530783
        CHANNELS 3 Zrotation Xrotation Yrotation
        JOINT FootRight
        {
          OFFSET 3.083071 -8.285545 -2.661043
          CHANNELS 3 Zrotation Xrotation Yrotation
          End Site
          {
            OFFSET 0 0 0
          }
        }
      }
    }
  }
}
MOTION
Frames: 5
Frame Time: 0.033333
-34.067668 68.714413 327.470203 1.687894 -4.896972 -34.755069 0.324685 -0.085419 34.916971 0.140727 -0.051302 0.123185 -1.767623 12.514455 -2.309322 0.000000 0.000000 0.000000 -10.957650 0.930090 2.272666 62.515300 -3.540793 -6.514649 19.683067 -6.166262 54.979207 9.081501 12.571910 -41.597883 0.000000 0.000000 0.000000 0.000000 0.000000 0.000000 -11.954273 24.819678 5.163287 19.632984 55.052442 -9.441337 10.019493 -70.339146 6.225955 -2.807531 42.268072 -0.318861 0.000000 0.000000 0.000000 0.000000 0.000000 0.000000 -3.894943 10.302227 33.648275 -2.128170 -12.289647 2.972137 26.039299 46.664796 2.061185 0.000000 0.000000 0.000000 6.681180 22.684023 37.139368 -25.953376 -27.049040 -0.973222 -44.147721 35.714346 39.994488 0.000000 0.000000 0.000000
-34.133710 69.293822 327.670552 1.290827 -4.755181 -36.678845 0.309105 -0.043766 36.808060 0.061352 0.014892 0.101055 -1.622468 12.326040 -2.227343 0.000000 0.000000 0.000000 -7.338733 3.152795 1.494157 75.544079 -8.938649 -2.975938 22.608862 -2.356382 69.204732 4.981704 11.248538 -51.278506 0.000000 0.000000 0.000000 0.000000 0.000000 0.000000 -10.736712 22.941489 4.570381 17.283241 54.880562 -9.023752 12.157199 -70.186703 8.737805 -1.575205 44.217992 -1.772893 0.000000 0.000000 0.000000 0.000000 0.000000 0.000000 -4.131915 9.128354 35.769535 -0.496305 -11.741952 3.093690 25.166373 50.656810 2.931863 0.000000 0.000000 0.000000 3.534595 22.747186 39.074781 -23.630243 -28.817411 -0.459707 -41.489431 26.972535 31.531340 0.000000 0.000000 0.000000
-34.281768 70.740930 328.068942 0.391811 -4.309001 -37.749386 0.296991 -0.038523 37.809270 0.075662 -0.001353 0.060281 -1.391893 12.478586 -2.198331 0.000000 0.000000 0.000000 -5.518427 4.492900 1.243449 87.307950 -12.408191 0.703871 19.188936 -13.396334 80.908113 19.870498 12.823128 -62.582325 0.000000 0.000000 0.000000 0.000000 0.000000 0.000000 -9.888607 22.374073 4.510491 16.144937 53.997825 -8.553926 13.323386 -70.079072 10.107811 -0.917864 45.150338 -2.555106 0.000000 0.000000 0.000000 0.000000 0.000000 0.000000 -3.594419 9.326087 36.771166 -0.637953 -12.542032 3.203000 17.350337 47.177734 6.301405 0.000000 0.000000 0.000000 0.838798 21.569104 39.950062 -19.152755 -28.919370 0.527946 -40.150718 18.849279 24.533706 0.000000 0.000000 0.000000
-34.370497 72.558246 328.737884 -0.644388 -3.867222 -37.854761 0.312948 -0.058718 37.843588 0.127574 -0.049646 0.015898 -1.472940 12.814362 -2.089349 0.000000 0.000000 0.000000 -5.744030 4.319432 1.576505 94.274861 -13.675954 1.926168 17.434081 -26.120384 88.856745 26.756756 6.602812 -62.602325 0.000000 0.000000 0.000000 0.000000 0.000000 0.000000 -8.721146 24.734687 5.068887 15.704392 52.339239 -8.656423 12.063944 -69.963019 9.507427 -7.967824 50.717973 1.186539 0.000000 0.000000 0.000000 0.000000 0.000000 0.000000 -3.145647 11.117956 36.559460 -2.617140 -15.515746 3.366509 11.349671 42.903488 8.262656 0.000000 0.000000 0.000000 -1.336856 20.072612 39.676232 -13.741166 -28.804312 1.988781 -38.030374 15.430897 19.977700 0.000000 0.000000 0.000000
-34.494537 73.626740 329.511165 -1.730658 -3.319888 -37.687796 0.338405 -0.072968 37.610975 0.146146 -0.069526 -0.032674 -1.628628 13.110162 -1.962212 0.000000 0.000000 0.000000 -7.747153 2.596183 2.326745 97.489643 -13.407944 0.407951 20.654202 -47.686616 98.882578 36.480325 -2.690075 -59.983128 0.000000 0.000000 0.000000 0.000000 0.000000 0.000000 -7.846754 22.600734 4.709538 16.175541 53.179689 -8.548487 13.456586 -70.094011 10.050382 3.154691 45.568113 -5.233930 0.000000 0.000000 0.000000 0.000000 0.000000 0.000000 -2.912659 14.011515 35.915630 -5.986401 -20.382873 3.314424 6.836460 37.143815 8.476939 0.000000 0.000000 0.000000 -2.621939 18.397170 39.065112 -8.944942 -27.705410 3.202173 -28.751934 14.319957 12.383374 0.000000 0.000000 0.000000
